<svg xmlns="http://www.w3.org/2000/svg" height="512" width="512"><path d="M256 0C114.836 0 0 114.836 0 256s114.836 256 256 256 256-114.836 256-256S397.164 0 256 0zm0 0" fill="#00af80" data-original="#2196F3" class="active-path" data-old_color="#2196f3"/><path d="M368 277.332h-90.668V368c0 11.777-9.555 21.332-21.332 21.332s-21.332-9.555-21.332-21.332v-90.668H144c-11.777 0-21.332-9.555-21.332-21.332s9.555-21.332 21.332-21.332h90.668V144c0-11.777 9.555-21.332 21.332-21.332s21.332 9.555 21.332 21.332v90.668H368c11.777 0 21.332 9.555 21.332 21.332s-9.555 21.332-21.332 21.332zm0 0" fill="#fff" data-original="#FAFAFA" data-old_color="#fafafa"/></svg>